Batman - El Caballero Oscuro (2008)

Blu-ray rip, 720p, con tomas rodadas en IMAX (con bandas negras para adaptarse al cambio de formato).

Audio en español de España, con subtítulos forzados en español.

Listo para guardar en un DVD.

Ficha técnica del archivo:

General
Unique ID                      : 214728635776583104495666068310740898455 (0xA18B3B1FEDEDFC5E87C3A10244371297)
Complete name                  : El caballero oscuro.2008.720p.BluRay.mkv
Format                         : Matroska
Format version                 : Version 4 / Version 2
File size                      : 4.37 GiB
Duration                       : 2h 32mn
Overall bit rate mode          : Variable
Overall bit rate               : 4 110 Kbps
Encoded date                   : UTC 2013-04-01 09:38:14
Writing application            : mkvmerge v6.1.0 ('Old Devil') built on Mar  2 2013 14:32:37
Writing library                : libebml v1.3.0 + libmatroska v1.4.0

Video
ID                             : 1
Format                         : AVC
Format/Info                    : Advanced Video Codec
Format profile                 : High@L4.1
Format settings, CABAC         : Yes
Format settings, ReFrames      : 3 frames
Codec ID                       : V_MPEG4/ISO/AVC
Duration                       : 2h 32mn
Bit rate mode                  : Variable
Bit rate                       : 3 726 Kbps
Maximum bit rate               : 10 000 Kbps
Width                          : 1 280 pixels
Height                         : 720 pixels
Display aspect ratio           : 16:9
Frame rate mode                : Constant
Frame rate                     : 23.976 fps
Standard                       : NTSC
Color space                    : YUV
Chroma subsampling             : 4:2:0
Bit depth                      : 8 bits
Scan type                      : Progressive
Bits/(Pixel*Frame)             : 0.169
Stream size                    : 3.87 GiB (89%)
Writing library                : x264 core 114
Encoding settings              : cabac=1 / ref=3 / deblock=1:0:0 / analyse=0x3:0x113 / me=hex / subme=7 / psy=1 / psy_rd=1.00:0.00 / mixed_ref=1 / me_range=16 / chroma_me=1 / trellis=1 / 8x8dct=1 / cqm=2 / deadzone=21,11 / fast_pskip=1 / chroma_qp_offset=-4 / threads=6 / sliced_threads=0 / slices=1 / nr=0 / decimate=1 / interlaced=0 / constrained_intra=0 / bframes=3 / b_pyramid=0 / b_adapt=1 / b_bias=0 / direct=1 / weightb=1 / open_gop=0 / weightp=2 / keyint=250 / keyint_min=23 / scenecut=40 / intra_refresh=0 / rc_lookahead=40 / rc=2pass / mbtree=1 / bitrate=3726 / ratetol=1.0 / qcomp=0.60 / qpmin=5 / qpmax=69 / qpstep=4 / cplxblur=20.0 / qblur=0.5 / vbv_maxrate=10000 / vbv_bufsize=9994 / nal_hrd=vbr / ip_ratio=1.40 / aq=1:1.00
Language                       : English
Default                        : Yes
Forced                         : No
Color primaries                : BT.709
Transfer characteristics       : BT.709
Matrix coefficients            : BT.709

Audio
ID                             : 2
Format                         : AC-3
Format/Info                    : Audio Coding 3
Mode extension                 : CM (complete main)
Format settings, Endianness    : Big
Codec ID                       : A_AC3
Duration                       : 2h 32mn
Bit rate mode                  : Constant
Bit rate                       : 384 Kbps
Channel(s)                     : 6 channels
Channel positions              : Front: L C R, Side: L R, LFE
Sampling rate                  : 48.0 KHz
Bit depth                      : 16 bits
Compression mode               : Lossy
Delay relative to video        : 1s 0ms
Stream size                    : 418 MiB (9%)
Language                       : Spanish
Default                        : Yes
Forced                         : No

Text
ID                             : 3
Format                         : UTF-8
Codec ID                       : S_TEXT/UTF8
Codec ID/Info                  : UTF-8 Plain Text
Language                       : Spanish
Default                        : Yes
Forced                         : No

